<svg width="20" height="21" viewBox="0 0 20 21" fill="none" xmlns="http://www.w3.org/2000/svg">
<path d="M15.7918 12.8893C15.3823 12.4629 14.8884 12.235 14.365 12.235C13.8458 12.235 13.3477 12.4587 12.9214 12.8851L11.5875 14.2147C11.4778 14.1556 11.368 14.1007 11.2625 14.0459C11.1105 13.9699 10.967 13.8981 10.8446 13.8221C9.59513 13.0286 8.45964 11.9944 7.37059 10.6563C6.84295 9.98935 6.48837 9.42794 6.23088 8.85809C6.57702 8.5415 6.89782 8.21226 7.21019 7.89567C7.32838 7.77748 7.44657 7.65506 7.56476 7.53687C8.4512 6.65043 8.4512 5.50229 7.56476 4.61585L6.41239 3.46348C6.28154 3.33262 6.14646 3.19754 6.01983 3.06247C5.76656 2.80076 5.50063 2.53061 5.22625 2.27734C4.8168 1.87211 4.32715 1.65683 3.81217 1.65683C3.29719 1.65683 2.7991 1.87211 2.37698 2.27734C2.37276 2.28156 2.37276 2.28156 2.36854 2.28578L0.933356 3.73363C0.39305 4.27393 0.0849075 4.93243 0.0173694 5.69646C-0.0839379 6.92903 0.27908 8.07718 0.557675 8.82854C1.2415 10.6732 2.26301 12.3827 3.78684 14.2147C5.6357 16.4224 7.86024 18.1657 10.4014 19.394C11.3722 19.8542 12.6681 20.3987 14.116 20.4915C14.2046 20.4958 14.2975 20.5 14.3819 20.5C15.357 20.5 16.1759 20.1496 16.8175 19.4531C16.8217 19.4447 16.8302 19.4405 16.8344 19.432C17.0539 19.1661 17.3071 18.9255 17.5731 18.668C17.7546 18.4949 17.9403 18.3134 18.1218 18.1235C18.5397 17.6887 18.7592 17.1822 18.7592 16.663C18.7592 16.1396 18.5355 15.6372 18.1092 15.2151L15.7918 12.8893ZM17.3029 17.3341C17.2987 17.3341 17.2987 17.3384 17.3029 17.3341C17.1383 17.5114 16.9695 17.6718 16.7879 17.8491C16.5136 18.1108 16.235 18.3852 15.9733 18.6933C15.5469 19.1492 15.0446 19.3645 14.3861 19.3645C14.3228 19.3645 14.2553 19.3645 14.1919 19.3603C12.9383 19.2801 11.7732 18.7904 10.8995 18.3725C8.5103 17.2159 6.41239 15.5739 4.66906 13.4929C3.22965 11.758 2.26724 10.154 1.62984 8.43175C1.23728 7.38069 1.09376 6.56179 1.15708 5.78932C1.19929 5.29545 1.38924 4.886 1.73959 4.53565L3.179 3.09624C3.38584 2.90207 3.60534 2.79654 3.82061 2.79654C4.08654 2.79654 4.30182 2.95694 4.4369 3.09202C4.44112 3.09624 4.44534 3.10046 4.44956 3.10468C4.70705 3.34528 4.95188 3.59433 5.20937 3.86026C5.34022 3.99534 5.4753 4.13042 5.61037 4.26971L6.76275 5.42208C7.21019 5.86952 7.21019 6.2832 6.76275 6.73064C6.64033 6.85305 6.52214 6.97546 6.39973 7.09365C6.04515 7.45667 5.70746 7.79436 5.34022 8.12361C5.33178 8.13205 5.32334 8.13627 5.31912 8.14472C4.9561 8.50773 5.02364 8.86231 5.09962 9.10291C5.10384 9.11558 5.10806 9.12824 5.11228 9.1409C5.41198 9.86694 5.8341 10.5508 6.47571 11.3654L6.47993 11.3697C7.64496 12.8049 8.87331 13.9235 10.2283 14.7803C10.4014 14.8901 10.5787 14.9787 10.7475 15.0632C10.8995 15.1391 11.043 15.2109 11.1654 15.2869C11.1823 15.2953 11.1992 15.308 11.216 15.3164C11.3596 15.3882 11.4946 15.422 11.6339 15.422C11.9843 15.422 12.2038 15.2025 12.2755 15.1307L13.7192 13.6871C13.8627 13.5436 14.0906 13.3705 14.3566 13.3705C14.6183 13.3705 14.8336 13.5351 14.9644 13.6786C14.9686 13.6828 14.9686 13.6828 14.9729 13.6871L17.2987 16.0129C17.7335 16.4435 17.7335 16.8867 17.3029 17.3341Z" fill="#BCBCBC"/>
<path d="M10.7938 5.25747C11.8997 5.4432 12.9043 5.96662 13.7063 6.76863C14.5084 7.57065 15.0276 8.57528 15.2175 9.68122C15.2639 9.95981 15.5045 10.154 15.7789 10.154C15.8127 10.154 15.8422 10.1498 15.876 10.1455C16.1884 10.0949 16.3952 9.79941 16.3446 9.48705C16.1166 8.14894 15.4834 6.92904 14.5168 5.9624C13.5502 4.99576 12.3303 4.36258 10.9922 4.13464C10.6798 4.08399 10.3885 4.29083 10.3337 4.59897C10.2788 4.90711 10.4814 5.20681 10.7938 5.25747Z" fill="#BCBCBC"/>
<path d="M19.9622 9.32242C19.5865 7.11899 18.5481 5.11395 16.9525 3.51836C15.3569 1.92277 13.3519 0.884369 11.1485 0.508688C10.8403 0.453813 10.5491 0.66487 10.4942 0.973013C10.4435 1.28538 10.6504 1.57664 10.9627 1.63151C12.9298 1.96498 14.7238 2.89785 16.1505 4.32037C17.5773 5.74712 18.5059 7.5411 18.8394 9.50815C18.8858 9.78675 19.1264 9.98092 19.4008 9.98092C19.4346 9.98092 19.4641 9.9767 19.4979 9.97248C19.806 9.92604 20.0171 9.63056 19.9622 9.32242Z" fill="#BCBCBC"/>
</svg>
