<svg width="24" height="24" viewBox="0 0 24 24" fill="none" xmlns="http://www.w3.org/2000/svg">
<path d="M2.02077 15.2725L2.82077 12.8725C2.87517 12.7092 3.02787 12.5991 3.19997 12.5989H5.19998C5.42088 12.5989 5.59998 12.778 5.59998 12.9989V14.9989C5.60003 15.1979 5.45377 15.3667 5.25677 15.3949L2.45677 15.7949C2.43797 15.7976 2.41897 15.799 2.39997 15.7989C2.17907 15.7988 2.00012 15.6195 2.00027 15.3986C2.00032 15.3558 2.00722 15.3132 2.02077 15.2725ZM4.79998 14.6521V13.3989H3.48837L2.98397 14.9113L4.79998 14.6521Z" fill="#2D2D2D"/>
<path d="M0.799999 7.3989C0.627899 7.39875 0.475199 7.2886 0.420799 7.1253L0.0207996 5.9253C0.00709915 5.88455 9.91821e-05 5.8419 0 5.7989V4.1989C0 3.978 0.1791 3.7989 0.4 3.7989H18.3248C18.9865 2.6517 20.453 2.25815 21.6002 2.9199C22.3432 3.34845 22.8007 4.1412 22.8 4.9989V14.1989H23.6C23.8209 14.1989 24 14.378 24 14.5989V19.3989C24 19.6198 23.8209 19.7989 23.6 19.7989H23.2V20.5989H23.6V21.3989H22V20.5989H22.4V19.7989H20.76C20.5391 20.8812 19.4827 21.5794 18.4004 21.3585C17.3182 21.1376 16.6199 20.0812 16.8408 18.9989C17.0617 17.9167 18.1182 17.2184 19.2004 17.4393C19.9858 17.5997 20.5996 18.2135 20.76 18.9989H21.6V16.5989H12.9656L12 17.5645V18.9989H12.84C13.0609 17.9167 14.1173 17.2184 15.1996 17.4393C16.2819 17.6602 16.9801 18.7167 16.7592 19.7989C16.5383 20.8812 15.4818 21.5794 14.3996 21.3585C13.6142 21.1982 13.0003 20.5844 12.84 19.7989H8V20.5989H8.4V21.3989H6.8V20.5989H7.2V19.7989H5.56C5.3402 20.8814 4.2845 21.5807 3.202 21.3609C2.41495 21.2011 1.7998 20.586 1.64 19.7989H0.4C0.1791 19.7989 0 19.6198 0 19.3989V15.3989C0 15.348 0.00964928 15.2975 0.0283985 15.2501L1.6284 11.2501C1.68925 11.0983 1.8364 10.9988 2 10.9989H6.8C7.0209 10.9989 7.2 11.178 7.2 11.3989V14.1989H14V11.7445C14.0015 10.4497 15.0508 9.40045 16.3456 9.3989H18V8.8825L10.332 6.1989H3.088L2.7792 7.1253C2.7248 7.2886 2.5721 7.39875 2.4 7.3989H2V8.1989C2 8.4198 1.8209 8.5989 1.6 8.5989C1.3791 8.5989 1.2 8.778 1.2 8.9989C1.2 9.2198 1.3791 9.3989 1.6 9.3989C1.8209 9.3989 2 9.2198 2 8.9989H2.8C2.79985 9.66165 2.2625 10.1988 1.59975 10.1987C0.937 10.1985 0.399849 9.66115 0.4 8.9984C0.400099 8.48995 0.7206 8.03675 1.2 7.86725V7.39885H0.799999V7.3989ZM18.8 18.1989C18.1372 18.1989 17.6 18.7362 17.6 19.3989C17.6 20.0617 18.1372 20.5989 18.8 20.5989C19.4627 20.5989 20 20.0617 20 19.3989C20 18.7362 19.4627 18.1989 18.8 18.1989ZM14.8 20.5989C15.4627 20.5989 16 20.0617 16 19.3989C16 18.7362 15.4627 18.1989 14.8 18.1989C14.1372 18.1989 13.6 18.7362 13.6 19.3989C13.6 20.0617 14.1372 20.5989 14.8 20.5989ZM3.6 20.5989C4.26275 20.5989 4.8 20.0617 4.8 19.3989C4.8 18.7362 4.26275 18.1989 3.6 18.1989C2.93725 18.1989 2.4 18.7362 2.4 19.3989C2.4 20.0617 2.93725 20.5989 3.6 20.5989ZM6.4 11.7989H2.2708L0.799999 15.4757V16.9989H1.6V17.7989H0.799999V18.9989H1.64C1.8598 17.9164 2.9155 17.2171 3.998 17.4369C4.78505 17.5967 5.4002 18.2119 5.56 18.9989H6.4V11.7989ZM22 4.9989C22 4.11525 21.2836 3.3989 20.4 3.3989C19.5163 3.3989 18.8 4.11525 18.8 4.9989V14.1989H22V4.9989ZM22.4 18.9989H23.2V16.5989H22.4V18.9989ZM7.2 18.9989H8V16.5989H7.2V18.9989ZM7.2 14.9989V15.7989H8.4C8.6209 15.7989 8.8 15.978 8.8 16.1989V18.9989H11.2V17.3989C11.2 17.2928 11.2422 17.1911 11.3172 17.1161L12.5172 15.9161C12.5922 15.8411 12.6939 15.7989 12.8 15.7989H23.2V14.9989H7.2ZM16.4 10.1989H16.3456C15.4923 10.1998 14.8009 10.8913 14.8 11.7445V12.1989H16.4V10.1989ZM17.2 10.1989V12.5989C17.2 12.8198 17.0209 12.9989 16.8 12.9989H14.8V14.1989H18V10.1989H17.2ZM18 8.0353V6.1989H12.7536L18 8.0353ZM5.6 5.3989H18V4.5989H5.6V5.3989ZM3.2 5.3989H4.8V4.5989H3.2V5.3989ZM2.1116 6.5989L2.4 5.7341V4.5989H0.799999V5.7341L1.0884 6.5989H2.1116Z" fill="#2D2D2D"/>
</svg>
