<svg width="24" height="24" viewBox="0 0 24 24" fill="none" xmlns="http://www.w3.org/2000/svg">
<path d="M22.7096 1.80714e-06H1.31243C0.935043 -0.000712047 0.589064 0.210112 0.41655 0.54586C0.241656 0.886128 0.272352 1.29588 0.495787 1.60664L8.33482 12.6494C8.33744 12.6532 8.34029 12.6568 8.34291 12.6606C8.62774 13.0451 8.78169 13.5108 8.78264 13.9896V22.9927C8.78098 23.2594 8.88567 23.5154 9.07365 23.7046C9.26163 23.8938 9.51719 23.9999 9.7837 23.9999C9.91933 23.9999 10.0533 23.9728 10.1785 23.9209L14.5834 22.2412C14.9782 22.1208 15.2401 21.7484 15.2401 21.2999V13.9896C15.2408 13.5111 15.395 13.0451 15.6796 12.6606C15.6822 12.6568 15.6851 12.6532 15.6877 12.6494L23.5265 1.60617C23.7499 1.29564 23.7806 0.886128 23.6057 0.54586C23.4332 0.210112 23.0873 -0.000712047 22.7096 1.80714e-06ZM14.6974 11.9389C14.2595 12.5331 14.0228 13.2514 14.0214 13.9896V21.1519L10.0009 22.6847V13.9896C9.99952 13.2514 9.76276 12.5331 9.32469 11.9389L1.71433 1.21831H22.308L14.6974 11.9389Z" fill="#2D2D2D"/>
</svg>
