<svg width="80" height="75" viewBox="0 0 80 75" fill="none" xmlns="http://www.w3.org/2000/svg">
<circle cx="54" cy="26" r="26" fill="#FFEFC7"/>
<path d="M51.7765 50.3518L49.035 49.7645L49.0251 49.7612L42.4495 48.3546C42.4939 48.0325 42.5173 47.7079 42.5195 47.3828V44.3291C44.493 43.0684 46.1176 41.3313 47.2434 39.2779C48.3692 37.2245 48.9601 34.9207 48.9617 32.5789V30.0906H50.464C50.5897 30.0907 50.7142 30.066 50.8303 30.0179C50.9464 29.9699 51.052 29.8994 51.1409 29.8105C51.2297 29.7216 51.3002 29.6161 51.3483 29.4999C51.3964 29.3838 51.4211 29.2593 51.421 29.1336V25.8523C51.4211 25.7266 51.3964 25.6022 51.3483 25.486C51.3002 25.3699 51.2297 25.2643 51.1409 25.1755C51.052 25.0866 50.9464 25.0161 50.8303 24.968C50.7142 24.9199 50.5897 24.8952 50.464 24.8953H49.7733C49.7334 21.6051 48.5939 18.4229 46.5361 15.8554C44.4782 13.2879 41.6205 11.4827 38.418 10.7274V8.55469C38.418 8.42899 38.3933 8.30451 38.3453 8.18836C38.2972 8.07222 38.2267 7.96669 38.1378 7.8778C38.0489 7.78892 37.9434 7.71843 37.8273 7.67036C37.7111 7.62229 37.5866 7.59758 37.4609 7.59766H32.5391C32.2852 7.59766 32.0418 7.69849 31.8623 7.87796C31.6829 8.05744 31.582 8.30087 31.582 8.55469V10.7274C28.3795 11.4827 25.5217 13.2879 23.4639 15.8554C21.4061 18.4229 20.2665 21.6051 20.2267 24.8953H19.536C19.4103 24.8952 19.2858 24.9199 19.1697 24.968C19.0535 25.0161 18.948 25.0866 18.8591 25.1755C18.7702 25.2643 18.6997 25.3699 18.6517 25.486C18.6036 25.6022 18.5789 25.7266 18.579 25.8523V29.1336C18.5789 29.2593 18.6036 29.3838 18.6517 29.4999C18.6997 29.6161 18.7702 29.7216 18.8591 29.8105C18.948 29.8994 19.0535 29.9699 19.1697 30.0179C19.2858 30.066 19.4103 30.0907 19.536 30.0906H21.0383V32.5789C21.0399 34.9207 21.6308 37.2245 22.7566 39.2779C23.8824 41.3313 25.5069 43.0684 27.4805 44.3291V47.3828C27.4827 47.7079 27.5061 48.0325 27.5505 48.3546L20.9748 49.7612H20.9677L18.2246 50.3485C16.5434 50.7135 15.0371 51.6412 13.9547 52.9784C12.8723 54.3155 12.2787 55.982 12.2719 57.7023V71.4453C12.2719 71.6991 12.3727 71.9426 12.5522 72.122C12.7317 72.3015 12.9751 72.4023 13.2289 72.4023H56.7711C57.0249 72.4023 57.2683 72.3015 57.4478 72.122C57.6273 71.9426 57.7281 71.6991 57.7281 71.4453V57.7023C57.7207 55.9827 57.1269 54.317 56.0448 52.9806C54.9627 51.6441 53.457 50.7167 51.7765 50.3518ZM47.8592 24.8953H43.3398V19.2898C43.3398 19.036 43.239 18.7926 43.0595 18.6131C42.88 18.4336 42.6366 18.3328 42.3828 18.3328C42.129 18.3328 41.8856 18.4336 41.7061 18.6131C41.5266 18.7926 41.4258 19.036 41.4258 19.2898V24.8953H38.418V12.6874C41.1023 13.4239 43.4746 15.0127 45.1774 17.2146C46.8803 19.4165 47.8215 22.1121 47.8592 24.8953ZM33.4961 9.51172H36.5039V24.8953H33.4961V9.51172ZM31.582 12.688V24.8953H28.5742V19.2898C28.5742 19.036 28.4734 18.7926 28.2939 18.6131C28.1144 18.4336 27.871 18.3328 27.6172 18.3328C27.3634 18.3328 27.1199 18.4336 26.9405 18.6131C26.761 18.7926 26.6601 19.036 26.6601 19.2898V24.8953H22.1408C22.1785 22.1121 23.1196 19.4165 24.8225 17.2148C26.5254 15.013 28.8977 13.4242 31.582 12.688ZM20.493 26.8094H49.5069V28.1766H20.493V26.8094ZM22.954 32.5789V30.0906H47.0476V32.5789C47.0476 35.7741 45.7783 38.8385 43.519 41.0979C41.2596 43.3573 38.1952 44.6266 35 44.6266C31.8048 44.6266 28.7404 43.3573 26.481 41.0979C24.2216 38.8385 22.9523 35.7741 22.9523 32.5789H22.954ZM35 46.5352C36.9299 46.537 38.839 46.1365 40.6055 45.3594V47.3828C40.6055 48.8695 40.0149 50.2952 38.9637 51.3465C37.9124 52.3977 36.4867 52.9883 35 52.9883C33.5133 52.9883 32.0876 52.3977 31.0363 51.3465C29.9851 50.2952 29.3945 48.8695 29.3945 47.3828V45.3594C31.161 46.1365 33.0701 46.537 35 46.5352ZM14.1859 57.7023C14.1918 56.4202 14.6349 55.1785 15.442 54.1822C16.2491 53.186 17.3719 52.4949 18.6249 52.2232L20.218 51.882V70.4883H14.1859V57.7023ZM22.132 51.4723L28.0383 50.208C28.5411 51.4414 29.3619 52.5194 30.4172 53.3321C31.4724 54.1449 32.7243 54.6633 34.0451 54.8345V70.4883H22.132V51.4723ZM35.957 70.4883V54.8345C37.2779 54.6634 38.5299 54.145 39.5851 53.3323C40.6404 52.5195 41.4612 51.4414 41.9639 50.208L47.8701 51.4723V70.4883H35.957ZM55.814 70.4883H49.782V51.8825L51.3756 52.2237C52.6284 52.4956 53.7511 53.1866 54.5581 54.1827C55.365 55.1788 55.8081 56.4204 55.814 57.7023V70.4883Z" fill="#2D2D2D"/>
<path d="M53.4898 60.813C53.3641 60.8129 53.2396 60.8376 53.1235 60.8857C53.0074 60.9338 52.9018 61.0043 52.8129 61.0931C52.7241 61.182 52.6536 61.2875 52.6055 61.4037C52.5574 61.5198 52.5327 61.6443 52.5328 61.77V65.1907C52.5328 65.4445 52.6336 65.688 52.8131 65.8674C52.9926 66.0469 53.236 66.1478 53.4898 66.1478C53.7436 66.1478 53.9871 66.0469 54.1666 65.8674C54.346 65.688 54.4469 65.4445 54.4469 65.1907V61.77C54.4469 61.5162 54.346 61.2728 54.1666 61.0933C53.9871 60.9138 53.7436 60.813 53.4898 60.813Z" fill="#2D2D2D"/>
<path d="M30.5484 58.6372H25.6265C25.3727 58.6372 25.1293 58.738 24.9498 58.9175C24.7703 59.097 24.6695 59.3404 24.6695 59.5942C24.6695 59.8481 24.7703 60.0915 24.9498 60.271C25.1293 60.4504 25.3727 60.5513 25.6265 60.5513H30.5484C30.8022 60.5513 31.0457 60.4504 31.2251 60.271C31.4046 60.0915 31.5054 59.8481 31.5054 59.5942C31.5054 59.3404 31.4046 59.097 31.2251 58.9175C31.0457 58.738 30.8022 58.6372 30.5484 58.6372Z" fill="#2D2D2D"/>
</svg>
