<svg width="80" height="75" viewBox="0 0 80 75" fill="none" xmlns="http://www.w3.org/2000/svg">
<circle cx="54" cy="26" r="26" fill="#FFEFC7"/>
<g clip-path="url(#clip0)">
<path d="M0.221389 11.4213L4.88983 19.5906C5.0473 19.8666 5.31087 20.0664 5.61909 20.1437L9.97451 21.2325L24.9127 36.1707L26.5632 34.5206L11.3913 19.3491C11.242 19.1993 11.0547 19.0932 10.8497 19.0418L6.66474 17.9919L2.69004 11.0324L6.09775 7.62471L13.0601 11.6033L14.1105 15.7882C14.1614 15.9937 14.268 16.1814 14.4173 16.3308L29.5893 31.5027L31.2394 29.8521L16.3012 14.914L15.2123 10.561C15.1351 10.2523 14.9353 9.98822 14.6593 9.83027L6.48951 5.16231C6.0339 4.90306 5.46066 4.97987 5.08907 5.35002L0.421108 10.0185C0.0456741 10.3877 -0.035942 10.9619 0.221389 11.4213Z" fill="#2D2D2D"/>
<path d="M48.7422 28.0009L23.0672 53.6763L21.4166 52.0258L47.0921 26.3508L48.7422 28.0009Z" fill="#2D2D2D"/>
<path d="M18.5734 54.5846C18.3622 54.2332 17.9829 54.0186 17.5729 54.0186H10.5707C10.1612 54.0186 9.78148 54.2332 9.57071 54.5846L6.06939 60.4197C5.84711 60.7894 5.84711 61.2517 6.06939 61.6218L9.57071 67.4569C9.78148 67.8079 10.1612 68.023 10.5707 68.023H17.5729C17.9829 68.023 18.3622 67.8079 18.5734 67.4569L22.0743 61.6218C22.2966 61.2517 22.2966 60.7894 22.0743 60.4197L18.5734 54.5846ZM16.9128 65.6887H11.2314L8.43049 61.0208L11.2314 56.3523H16.9128L19.7137 61.0208L16.9128 65.6887Z" fill="#2D2D2D"/>
<path d="M56.0856 33.0115C63.7935 33.0374 70.0635 26.8097 70.0895 19.1018C70.0933 17.9284 69.9493 16.7599 69.6607 15.6225C69.5052 14.997 68.8719 14.6163 68.2464 14.7718C68.0409 14.8232 67.8537 14.9293 67.7039 15.0786L60.4391 22.3386L54.6751 20.4177L52.7528 14.6551L60.0176 7.38892C60.4732 6.93283 60.4727 6.19397 60.0166 5.73836C59.8663 5.58809 59.6772 5.48151 59.4702 5.43062C51.9952 3.53761 44.4015 8.06249 42.5085 15.5371C42.2209 16.6711 42.0774 17.8367 42.0812 19.0067C42.0841 19.9256 42.1787 20.8416 42.365 21.7413L16.8062 47.2996C15.9065 47.1138 14.9904 47.0192 14.072 47.0159C6.33721 47.0159 0.0671692 53.2859 0.0671692 61.0207C0.0671692 68.755 6.33721 75.025 14.072 75.025C21.8063 75.025 28.0764 68.755 28.0764 61.0207C28.0735 60.1018 27.9784 59.1858 27.7926 58.2861L33.9114 52.1673L36.5875 54.8433C37.0436 55.2989 37.782 55.2989 38.2381 54.8433L38.8214 54.2595C39.3332 53.7511 40.1604 53.7511 40.6721 54.2595C41.1834 54.7694 41.1844 55.5971 40.6745 56.1084C40.6741 56.1088 40.6731 56.1098 40.6721 56.1108L40.0888 56.6941C39.6332 57.1497 39.6332 57.8885 40.0888 58.3442L54.0106 72.2659C57.6723 75.9612 63.636 75.9881 67.3313 72.3264C71.0261 68.6647 71.053 62.7005 67.3913 59.0057C67.3717 58.9856 67.3515 58.9654 67.3313 58.9452L53.4095 45.0239C52.9539 44.5683 52.2151 44.5683 51.7594 45.0239L51.1761 45.6073C50.6639 46.1162 49.8371 46.1162 49.3249 45.6073C48.8141 45.0974 48.8126 44.2697 49.3225 43.7589C49.3234 43.7579 49.3244 43.7575 49.3249 43.7565L49.9087 43.1727C50.3643 42.7171 50.3643 41.9782 49.9087 41.5226L47.2326 38.8466L53.3514 32.7278C54.2511 32.9136 55.1672 33.0086 56.0856 33.0115ZM60.671 72.6913C59.8231 72.6898 58.9825 72.5367 58.1889 72.2385L67.3035 63.1235C68.6789 66.7823 66.8282 70.8631 63.1694 72.2385C62.371 72.5386 61.5246 72.6922 60.671 72.6913ZM47.4496 42.3594C46.1572 43.901 46.3598 46.1987 47.9014 47.4907C49.2562 48.6261 51.2309 48.6251 52.5843 47.4873L65.6812 60.5958C65.8233 60.7384 65.9563 60.8886 66.085 61.0413L56.1067 71.0196C55.9536 70.8914 55.8033 70.7584 55.6607 70.6158L42.5536 57.5078C43.846 55.9662 43.6434 53.6685 42.1019 52.3766C40.747 51.2407 38.7719 51.2421 37.4185 52.3795L35.5514 50.5124L45.5821 40.4967L47.4496 42.3594ZM52.1622 30.6216L25.6874 57.0911C25.397 57.3811 25.2803 57.8021 25.3792 58.2001C26.9803 64.4879 23.1808 70.8832 16.8926 72.4839C10.6048 74.085 4.20943 70.2855 2.60831 63.9973C1.00767 57.7095 4.80714 51.3141 11.0954 49.713C12.9976 49.2291 14.9904 49.2291 16.8926 49.713C17.2906 49.8105 17.7106 49.6938 18.0016 49.4053L44.4702 22.9353C44.7601 22.6453 44.8768 22.2243 44.777 21.8268C43.1869 15.6124 46.9355 9.28577 53.1498 7.69522C54.3241 7.39516 55.5388 7.27994 56.7486 7.35531L50.5923 13.514C50.2798 13.826 50.1703 14.2883 50.31 14.7075L52.6438 21.7101C52.7604 22.0582 53.0341 22.3318 53.3826 22.4475L60.3853 24.7818C60.804 24.9215 61.2663 24.8125 61.5788 24.5004L67.7351 18.3442C67.749 18.5669 67.7562 18.7873 67.7562 19.0067C67.7888 25.4193 62.6173 30.6442 56.2046 30.6773C55.2132 30.6821 54.2252 30.5602 53.265 30.3144C52.867 30.215 52.446 30.3312 52.156 30.6211H52.1622V30.6216Z" fill="#2D2D2D"/>
<path d="M60.4133 63.6965L58.7627 65.3471L47.0926 53.6769L48.7427 52.0264L60.4133 63.6965Z" fill="#2D2D2D"/>
</g>
<defs>
<clipPath id="clip0">
<rect width="70" height="70" fill="white" transform="translate(0 5)"/>
</clipPath>
</defs>
</svg>
