<svg width="24" height="24" viewBox="0 0 24 24" fill="none" xmlns="http://www.w3.org/2000/svg">
<g clip-path="url(#clip0)">
<path d="M0.0760198 2.2016L1.67663 5.0025C1.73062 5.09715 1.82099 5.16562 1.92666 5.19212L3.41995 5.56544L8.5416 10.6871L9.10751 10.1214L3.90569 4.9197C3.8545 4.86835 3.79031 4.83197 3.72002 4.81436L2.28517 4.45437L0.922413 2.06827L2.09077 0.899911L4.47786 2.26398L4.83801 3.69884C4.85546 3.76929 4.892 3.83365 4.94319 3.88484L10.145 9.08665L10.7107 8.52074L5.5891 3.39909L5.21578 1.90663C5.18928 1.80079 5.1208 1.71026 5.02615 1.6561L2.22509 0.0556571C2.06888 -0.033229 1.87234 -0.00689237 1.74494 0.120017L0.144495 1.72063C0.0157748 1.84721 -0.0122079 2.04407 0.0760198 2.2016Z" fill="#2D2D2D"/>
<path d="M16.7117 7.88599L7.9088 16.689L7.3429 16.1231L16.1459 7.32025L16.7117 7.88599Z" fill="#2D2D2D"/>
<path d="M6.36806 17.0005C6.29563 16.88 6.1656 16.8064 6.02503 16.8064H3.62428C3.48388 16.8064 3.35368 16.88 3.28142 17.0005L2.08096 19.0011C2.00475 19.1278 2.00475 19.2863 2.08096 19.4132L3.28142 21.4138C3.35368 21.5341 3.48388 21.6079 3.62428 21.6079H6.02503C6.1656 21.6079 6.29563 21.5341 6.36806 21.4138L7.56835 19.4132C7.64456 19.2863 7.64456 19.1278 7.56835 19.0011L6.36806 17.0005ZM5.7987 20.8076H3.85078L2.89048 19.2071L3.85078 17.6065H5.7987L6.75899 19.2071L5.7987 20.8076Z" fill="#2D2D2D"/>
<path d="M19.2295 9.60398C21.8722 9.61287 24.0219 7.47763 24.0308 4.83491C24.0322 4.43261 23.9828 4.03197 23.8838 3.64202C23.8305 3.42754 23.6134 3.29701 23.3989 3.35034C23.3285 3.36796 23.2643 3.40433 23.2129 3.45552L20.7221 5.94467L18.7459 5.28609L18.0868 3.31034L20.5776 0.819061C20.7338 0.662687 20.7337 0.409361 20.5773 0.253152C20.5258 0.201631 20.4609 0.165089 20.39 0.147641C17.8271 -0.501393 15.2235 1.05 14.5745 3.61272C14.4759 4.00152 14.4267 4.40118 14.428 4.80232C14.429 5.11737 14.4614 5.43143 14.5253 5.7399L5.76227 14.5028C5.45381 14.4391 5.13974 14.4066 4.82485 14.4055C2.17292 14.4055 0.0231934 16.5552 0.0231934 19.2071C0.0231934 21.8589 2.17292 24.0086 4.82485 24.0086C7.47662 24.0086 9.62635 21.8589 9.62635 19.2071C9.62536 18.8921 9.59277 18.578 9.52907 18.2696L11.6269 16.1717L12.5444 17.0892C12.7008 17.2454 12.954 17.2454 13.1104 17.0892L13.3103 16.889C13.4858 16.7147 13.7694 16.7147 13.9449 16.889C14.1202 17.0638 14.1205 17.3476 13.9457 17.5229C13.9456 17.5231 13.9452 17.5234 13.9449 17.5237L13.7449 17.7237C13.5887 17.8799 13.5887 18.1333 13.7449 18.2895L18.5181 23.0627C19.7735 24.3296 21.8182 24.3388 23.0852 23.0834C24.352 21.828 24.3612 19.7831 23.1058 18.5163C23.099 18.5094 23.0921 18.5025 23.0852 18.4956L18.312 13.7225C18.1558 13.5663 17.9025 13.5663 17.7463 13.7225L17.5463 13.9225C17.3706 14.097 17.0872 14.097 16.9116 13.9225C16.7364 13.7477 16.7359 13.4639 16.9107 13.2888C16.9111 13.2885 16.9114 13.2883 16.9116 13.288L17.1117 13.0878C17.2679 12.9316 17.2679 12.6783 17.1117 12.5221L16.1942 11.6046L18.2921 9.5067C18.6006 9.5704 18.9146 9.60299 19.2295 9.60398ZM20.8016 23.2085C20.5109 23.208 20.2227 23.1555 19.9506 23.0533L23.0756 19.9281C23.5472 21.1826 22.9127 22.5817 21.6582 23.0533C21.3845 23.1562 21.0943 23.2088 20.8016 23.2085ZM16.2686 12.809C15.8255 13.3375 15.895 14.1253 16.4235 14.5683C16.888 14.9576 17.565 14.9572 18.029 14.5671L22.5194 19.0615C22.5682 19.1104 22.6138 19.1619 22.6579 19.2142L19.2367 22.6354C19.1842 22.5914 19.1327 22.5458 19.0838 22.4969L14.59 18.0027C15.0331 17.4742 14.9636 16.6864 14.4351 16.2435C13.9706 15.854 13.2934 15.8545 12.8294 16.2444L12.1892 15.6043L15.6283 12.1703L16.2686 12.809ZM17.8844 8.78458L8.80728 17.8599C8.7077 17.9593 8.6677 18.1036 8.7016 18.2401C9.25056 20.3959 7.94788 22.5886 5.7919 23.1374C3.63608 23.6864 1.4434 22.3837 0.894442 20.2277C0.345652 18.0719 1.64833 15.8792 3.80431 15.3302C4.45647 15.1643 5.13974 15.1643 5.7919 15.3302C5.92836 15.3636 6.07239 15.3236 6.17214 15.2247L15.2471 6.14927C15.3465 6.04985 15.3865 5.90549 15.3523 5.7692C14.8071 3.63856 16.0923 1.46941 18.223 0.924078C18.6256 0.821201 19.042 0.781696 19.4568 0.807539L17.3461 2.91908C17.239 3.02607 17.2014 3.18459 17.2493 3.32829L18.0495 5.7292C18.0895 5.84854 18.1833 5.94236 18.3028 5.98203L20.7037 6.78234C20.8472 6.83024 21.0057 6.79287 21.1129 6.68588L23.2236 4.57516C23.2284 4.65154 23.2309 4.72709 23.2309 4.80232C23.2421 7.00093 21.4689 8.79232 19.2703 8.80368C18.9304 8.80532 18.5917 8.76351 18.2625 8.67924C18.126 8.64516 17.9816 8.685 17.8822 8.78442H17.8844V8.78458Z" fill="#2D2D2D"/>
<path d="M20.713 20.1245L20.1471 20.6904L16.1459 16.6892L16.7116 16.1233L20.713 20.1245Z" fill="#2D2D2D"/>
</g>
<defs>
<clipPath id="clip0">
<rect width="24" height="24" fill="white"/>
</clipPath>
</defs>
</svg>
