<svg width="17" height="22" viewBox="0 0 17 22" fill="none" xmlns="http://www.w3.org/2000/svg">
<path d="M8.50005 0.5C4.22248 0.5 0.742554 3.97992 0.742554 8.2575C0.742554 9.66571 1.37411 11.1802 1.40057 11.2441C1.60455 11.7283 2.00703 12.4803 2.29725 12.9211L7.61615 20.9802C7.83382 21.3106 8.15598 21.5 8.50005 21.5C8.84412 21.5 9.16628 21.3106 9.38395 20.9807L14.7033 12.9211C14.994 12.4803 15.396 11.7283 15.6 11.2441C15.6265 11.1807 16.2575 9.66617 16.2575 8.2575C16.2575 3.97992 12.7776 0.5 8.50005 0.5ZM14.7585 10.89C14.5765 11.324 14.2018 12.0235 13.9413 12.4187L8.62189 20.4783C8.51694 20.6375 8.48362 20.6375 8.37867 20.4783L3.05931 12.4187C2.79875 12.0235 2.42411 11.3235 2.24203 10.8896C2.23427 10.8709 1.6552 9.47679 1.6552 8.2575C1.6552 4.48325 4.7258 1.41265 8.50005 1.41265C12.2743 1.41265 15.3449 4.48325 15.3449 8.2575C15.3449 9.47862 14.7645 10.8763 14.7585 10.89Z" fill="#FE1E01"/>
<path d="M8.5001 4.15088C6.23537 4.15088 4.39319 5.99351 4.39319 8.25779C4.39319 10.5221 6.23537 12.3647 8.5001 12.3647C10.7648 12.3647 12.607 10.5221 12.607 8.25779C12.607 5.99351 10.7648 4.15088 8.5001 4.15088ZM8.5001 11.4521C6.73915 11.4521 5.30584 10.0192 5.30584 8.25779C5.30584 6.49638 6.73915 5.06353 8.5001 5.06353C10.2611 5.06353 11.6944 6.49638 11.6944 8.25779C11.6944 10.0192 10.2611 11.4521 8.5001 11.4521Z" fill="#FE1E01"/>
</svg>
