<svg width="24" height="24" viewBox="0 0 24 24" fill="none" xmlns="http://www.w3.org/2000/svg">
<path d="M12.0782 5.25958C10.3868 5.25958 9.01013 6.63628 9.01013 8.32768C9.01013 10.0191 10.3868 11.3958 12.0782 11.3958C13.7696 11.3958 15.1463 10.0191 15.1463 8.32768C15.1463 6.63628 13.7696 5.25958 12.0782 5.25958ZM12.0782 10.5192C10.8698 10.5192 9.88673 9.53608 9.88673 8.32768C9.88673 7.11929 10.8698 6.13618 12.0782 6.13618C13.2866 6.13618 14.2697 7.11929 14.2697 8.32768C14.2697 9.53608 13.2866 10.5192 12.0782 10.5192Z" fill="#2D2D2D"/>
<path d="M17.944 2.46193C16.3565 0.874409 14.2457 0 12.0007 0C9.75528 0 7.64487 0.874409 6.05734 2.46193C3.11942 5.39942 2.75431 10.9264 5.26665 14.275L12.0007 24L18.7247 14.2886C21.2471 10.9264 20.882 5.39942 17.944 2.46193ZM18.0137 13.7762L12.0007 22.4598L5.97801 13.7626C3.69929 10.7243 4.02582 5.73297 6.67754 3.08169C8.09938 1.65984 9.98977 0.8766 12.0007 0.8766C14.0116 0.8766 15.902 1.65984 17.3243 3.08169C19.976 5.73297 20.3025 10.7243 18.0137 13.7762Z" fill="#2D2D2D"/>
</svg>
