<svg width="21" height="21" viewBox="0 0 21 21" fill="none" xmlns="http://www.w3.org/2000/svg">
<path d="M16.5966 13.0089C16.1667 12.5613 15.6481 12.3219 15.0985 12.3219C14.5534 12.3219 14.0304 12.5568 13.5827 13.0045L12.1821 14.4006C12.0669 14.3386 11.9517 14.2809 11.8409 14.2233C11.6813 14.1436 11.5306 14.0682 11.4021 13.9884C10.0901 13.1552 8.89788 12.0693 7.75438 10.6643C7.20035 9.96399 6.82805 9.37451 6.55769 8.77617C6.92113 8.44375 7.25797 8.09804 7.58595 7.76562C7.71006 7.64152 7.83416 7.51299 7.95826 7.38889C8.88902 6.45813 8.88902 5.25257 7.95826 4.32181L6.74827 3.11182C6.61087 2.97442 6.46904 2.83259 6.33608 2.69076C6.07014 2.41597 5.79092 2.13231 5.50282 1.86638C5.0729 1.44089 4.55877 1.21484 4.01804 1.21484C3.47731 1.21484 2.95431 1.44089 2.51109 1.86638C2.50666 1.87081 2.50666 1.87081 2.50223 1.87524L0.995283 3.39548C0.427962 3.9628 0.104412 4.65423 0.0334966 5.45645C-0.072876 6.75065 0.308293 7.95621 0.600817 8.74514C1.31883 10.682 2.39142 12.477 3.99145 14.4006C5.93275 16.7187 8.26851 18.5492 10.9367 19.8389C11.9561 20.322 13.3168 20.8938 14.837 20.9913C14.9301 20.9957 15.0276 21.0002 15.1163 21.0002C16.1401 21.0002 16.9999 20.6323 17.6736 19.901C17.6781 19.8921 17.6869 19.8877 17.6914 19.8788C17.9218 19.5996 18.1878 19.3469 18.467 19.0766C18.6576 18.8949 18.8526 18.7043 19.0432 18.5048C19.482 18.0483 19.7124 17.5165 19.7124 16.9713C19.7124 16.4217 19.4775 15.8943 19.0299 15.451L16.5966 13.0089ZM18.1833 17.676C18.1789 17.676 18.1789 17.6804 18.1833 17.676C18.0105 17.8622 17.8332 18.0306 17.6426 18.2167C17.3545 18.4915 17.062 18.7796 16.7872 19.1032C16.3395 19.5819 15.8121 19.8079 15.1207 19.8079C15.0542 19.8079 14.9833 19.8079 14.9168 19.8035C13.6004 19.7192 12.3772 19.2051 11.4597 18.7663C8.95107 17.5519 6.74827 15.8278 4.91777 13.6427C3.4064 11.8211 2.39586 10.1368 1.72659 8.32851C1.3144 7.2249 1.16371 6.36505 1.23019 5.55396C1.27451 5.03539 1.47396 4.60547 1.84183 4.2376L3.35321 2.72622C3.57039 2.52234 3.80086 2.41154 4.0269 2.41154C4.30613 2.41154 4.53217 2.57996 4.674 2.72179C4.67844 2.72622 4.68287 2.73065 4.6873 2.73509C4.95766 2.98772 5.21473 3.24922 5.48509 3.52845C5.62249 3.67028 5.76432 3.81211 5.90615 3.95837L7.11614 5.16836C7.58595 5.63817 7.58595 6.07253 7.11614 6.54234C6.98761 6.67087 6.86351 6.79941 6.73497 6.92351C6.36267 7.30468 6.00809 7.65925 5.62249 8.00496C5.61363 8.01383 5.60476 8.01826 5.60033 8.02712C5.21916 8.40829 5.29008 8.7806 5.36986 9.03323C5.37429 9.04653 5.37872 9.05982 5.38315 9.07312C5.69784 9.83546 6.14106 10.5535 6.81475 11.4089L6.81919 11.4133C8.04247 12.9203 9.33224 14.0948 10.755 14.9945C10.9367 15.1098 11.1228 15.2028 11.3001 15.2915C11.4597 15.3713 11.6104 15.4466 11.7389 15.5264C11.7566 15.5353 11.7744 15.5486 11.7921 15.5574C11.9428 15.6328 12.0846 15.6682 12.2309 15.6682C12.5988 15.6682 12.8292 15.4378 12.9046 15.3624L14.4204 13.8466C14.5711 13.6959 14.8104 13.5142 15.0897 13.5142C15.3645 13.5142 15.5905 13.687 15.7279 13.8377C15.7323 13.8422 15.7323 13.8422 15.7368 13.8466L18.1789 16.2887C18.6354 16.7408 18.6354 17.2062 18.1833 17.676Z" fill="#FCD127"/>
<path d="M11.3489 4.99557C12.5101 5.19058 13.565 5.74018 14.4071 6.58229C15.2492 7.42441 15.7944 8.47927 15.9938 9.64051C16.0426 9.93303 16.2952 10.1369 16.5833 10.1369C16.6188 10.1369 16.6498 10.1325 16.6853 10.128C17.0133 10.0749 17.2304 9.76461 17.1772 9.43663C16.9379 8.03162 16.2731 6.75072 15.2581 5.73574C14.2431 4.72077 12.9622 4.05594 11.5572 3.8166C11.2292 3.76342 10.9234 3.9806 10.8658 4.30415C10.8082 4.6277 11.0209 4.94238 11.3489 4.99557Z" fill="#FCD127"/>
<path d="M20.9756 9.26354C20.5812 6.94994 19.4908 4.84465 17.8155 3.16928C16.1401 1.49391 14.0348 0.403587 11.7212 0.00912211C11.3977 -0.0484964 11.0918 0.173113 11.0342 0.496664C10.981 0.824646 11.1982 1.13047 11.5262 1.18809C13.5916 1.53823 15.4753 2.51774 16.9734 4.01139C18.4714 5.50948 19.4465 7.39316 19.7967 9.45856C19.8454 9.75109 20.0981 9.95497 20.3862 9.95497C20.4216 9.95497 20.4526 9.95053 20.4881 9.9461C20.8116 9.89735 21.0333 9.58709 20.9756 9.26354Z" fill="#FCD127"/>
</svg>
