<svg width="90" height="74" viewBox="0 0 90 74" fill="none" xmlns="http://www.w3.org/2000/svg">
<circle cx="64" cy="26" r="26" fill="#FFEFC7"/>
<path d="M5.89398 48.5448L8.22731 41.5448C8.38598 41.0685 8.83136 40.7473 9.33331 40.7468H15.1666C15.8109 40.7468 16.3333 41.2692 16.3333 41.9135V47.7468C16.3335 48.3272 15.9069 48.8194 15.3323 48.9018L7.16564 50.0685C7.11081 50.0763 7.0554 50.0803 6.99998 50.0801C6.35569 50.0797 5.83375 49.5569 5.83419 48.9126C5.83434 48.7876 5.85446 48.6634 5.89398 48.5448ZM14 46.7353V43.0802H10.1745L8.70331 47.4913L14 46.7353Z" fill="#2D2D2D"/>
<path d="M2.33334 25.58C1.83138 25.5795 1.386 25.2582 1.22733 24.782L0.0606689 21.282C0.0207062 21.1631 0.000297546 21.0387 0 20.9133V16.2466C0 15.6023 0.522377 15.08 1.16667 15.08H53.4473C55.3774 11.734 59.6546 10.5861 63.0006 12.5162C65.1675 13.7661 66.5019 16.0783 66.5 18.58V45.4133H68.8333C69.4776 45.4133 70 45.9357 70 46.58V60.58C70 61.2242 69.4776 61.7466 68.8333 61.7466H67.6667V64.08H68.8333V66.4133H64.1667V64.08H65.3333V61.7466H60.55C59.9057 64.9032 56.8244 66.9397 53.6678 66.2955C50.5113 65.6512 48.4747 62.5699 49.119 59.4133C49.7633 56.2567 52.8446 54.2202 56.0012 54.8645C58.2921 55.3321 60.0823 57.1224 60.55 59.4133H63V52.4133H37.8163L35 55.2296V59.4133H37.45C38.0943 56.2567 41.1756 54.2202 44.3322 54.8645C47.4887 55.5087 49.5253 58.5901 48.881 61.7466C48.2367 64.9032 45.1554 66.9397 41.9988 66.2955C39.7079 65.8278 37.9177 64.0375 37.45 61.7466H23.3333V64.08H24.5V66.4133H19.8333V64.08H21V61.7466H16.2167C15.5756 64.9039 12.4965 66.9435 9.33917 66.3025C7.04361 65.8364 5.24942 64.0422 4.78333 61.7466H1.16667C0.522377 61.7466 0 61.2242 0 60.58V48.9133C0 48.7647 0.0281448 48.6174 0.0828323 48.4793L4.7495 36.8126C4.92698 36.3697 5.35617 36.0797 5.83334 36.08H19.8333C20.4776 36.08 21 36.6023 21 37.2466V45.4133H40.8333V38.2546C40.8379 34.4781 43.8982 31.4178 47.6747 31.4133H52.5V29.9071L30.135 22.08H9.00667L8.106 24.782C7.94734 25.2582 7.50196 25.5795 7 25.58H5.83334V27.9133C5.83334 28.5576 5.31096 29.08 4.66667 29.08C4.02238 29.08 3.5 29.6023 3.5 30.2466C3.5 30.8909 4.02238 31.4133 4.66667 31.4133C5.31096 31.4133 5.83334 30.8909 5.83334 30.2466H8.16667C8.16623 32.1796 6.59896 33.7463 4.66594 33.7459C2.73292 33.7455 1.16623 32.1782 1.16667 30.2452C1.16696 28.7622 2.10175 27.4404 3.5 26.946V25.5798H2.33334V25.58ZM54.8333 57.08C52.9003 57.08 51.3333 58.6469 51.3333 60.58C51.3333 62.513 52.9003 64.08 54.8333 64.08C56.7664 64.08 58.3333 62.513 58.3333 60.58C58.3333 58.6469 56.7664 57.08 54.8333 57.08ZM43.1667 64.08C45.0997 64.08 46.6667 62.513 46.6667 60.58C46.6667 58.6469 45.0997 57.08 43.1667 57.08C41.2336 57.08 39.6667 58.6469 39.6667 60.58C39.6667 62.513 41.2336 64.08 43.1667 64.08ZM10.5 64.08C12.433 64.08 14 62.513 14 60.58C14 58.6469 12.433 57.08 10.5 57.08C8.56698 57.08 7 58.6469 7 60.58C7 62.513 8.56698 64.08 10.5 64.08ZM18.6667 38.4133H6.62317L2.33334 49.1373V53.58H4.66667V55.9133H2.33334V59.4133H4.78333C5.42442 56.256 8.50354 54.2164 11.6608 54.8575C13.9564 55.3235 15.7506 57.1177 16.2167 59.4133H18.6667V38.4133ZM64.1667 18.58C64.1667 16.0026 62.0773 13.9133 59.5 13.9133C56.9227 13.9133 54.8333 16.0026 54.8333 18.58V45.4133H64.1667V18.58ZM65.3333 59.4133H67.6667V52.4133H65.3333V59.4133ZM21 59.4133H23.3333V52.4133H21V59.4133ZM21 47.7466V50.08H24.5C25.1443 50.08 25.6667 50.6023 25.6667 51.2466V59.4133H32.6667V54.7466C32.6667 54.4372 32.7897 54.1405 33.0085 53.9218L36.5085 50.4218C36.7272 50.203 37.0239 50.08 37.3333 50.08H67.6667V47.7466H21ZM47.8333 33.7466H47.6747C45.186 33.7492 43.1693 35.766 43.1667 38.2546V39.58H47.8333V33.7466ZM50.1667 33.7466V40.7466C50.1667 41.3909 49.6443 41.9133 49 41.9133H43.1667V45.4133H52.5V33.7466H50.1667ZM52.5 27.4361V22.08H37.198L52.5 27.4361ZM16.3333 19.7466H52.5V17.4133H16.3333V19.7466ZM9.33334 19.7466H14V17.4133H9.33334V19.7466ZM6.15884 23.2466L7 20.7243V17.4133H2.33334V20.7243L3.1745 23.2466H6.15884Z" fill="#2D2D2D"/>
</svg>
