<svg width="75" height="75" viewBox="0 0 75 75" fill="none" xmlns="http://www.w3.org/2000/svg">
<circle cx="49" cy="26" r="26" fill="#FFEFC7"/>
<g clip-path="url(#clip0)">
<path d="M35 74.9264C15.7004 74.9264 0 59.4668 0 40.4632C0 21.4596 15.7004 6 35 6C54.2996 6 70 21.4596 70 40.4632C70 59.4668 54.2996 74.9264 35 74.9264ZM35 8.87193C17.3104 8.87193 2.91667 23.0449 2.91667 40.4632C2.91667 57.8815 17.3104 72.0545 35 72.0545C52.6896 72.0545 67.0833 57.8815 67.0833 40.4632C67.0833 23.0449 52.6896 8.87193 35 8.87193Z" fill="#2D2D2D"/>
<path d="M51.0419 57.6949C50.6686 57.6949 50.2953 57.5541 50.0094 57.2756L33.9678 41.4799C33.6965 41.21 33.5419 40.8452 33.5419 40.4633V18.9238C33.5419 18.1311 34.1953 17.4878 35.0003 17.4878C35.8053 17.4878 36.4586 18.1311 36.4586 18.9238V39.8688L52.0744 55.2451C52.6432 55.8051 52.6432 56.7155 52.0744 57.2756C51.7886 57.5541 51.4153 57.6949 51.0419 57.6949Z" fill="#2D2D2D"/>
</g>
<defs>
<clipPath id="clip0">
<rect width="70" height="68.9264" fill="white" transform="translate(0 6)"/>
</clipPath>
</defs>
</svg>
