<svg xmlns="http://www.w3.org/2000/svg">

    <symbol id="workTime" xmlns="http://www.w3.org/2000/svg" fill="none" viewBox="0 0 24 24"><path fill="#FCB427" d="M12 24C5.383 24 0 18.617 0 12S5.383 0 12 0s12 5.383 12 12-5.383 12-12 12zm0-23C5.935 1 1 5.935 1 12s4.935 11 11 11 11-4.935 11-11S18.065 1 12 1z"/><path fill="#FCB427" d="M17.5 18c-.128 0-.256-.049-.354-.146l-5.5-5.5c-.093-.094-.146-.221-.146-.354V4.5c0-.276.224-.5.5-.5s.5.224.5.5v7.293l5.354 5.354c.195.195.195.512 0 .707-.098.097-.226.146-.354.146z"/></symbol>

    <symbol id="location" xmlns="http://www.w3.org/2000/svg" fill="none" viewBox="0 0 24 24"><path fill="#FCB427" d="M12.0782 5.25958c-1.6914 0-3.06807 1.3767-3.06807 3.0681 0 1.69142 1.37667 3.06812 3.06807 3.06812s3.0681-1.3767 3.0681-3.06812c0-1.6914-1.3767-3.0681-3.0681-3.0681zm0 5.25962c-1.2084 0-2.19147-.98312-2.19147-2.19152 0-1.20839.98307-2.1915 2.19147-2.1915 1.2084 0 2.1915.98311 2.1915 2.1915 0 1.2084-.9831 2.19152-2.1915 2.19152z"/><path fill="#FCB427" d="M17.944 2.46193C16.3565.874409 14.2457 0 12.0007 0 9.75528 0 7.64487.874409 6.05734 2.46193 3.11942 5.39942 2.75431 10.9264 5.26665 14.275L12.0007 24l6.724-9.7114c2.5224-3.3622 2.1573-8.88918-.7807-11.82667zm.0697 11.31427l-6.013 8.6836-6.02269-8.6972c-2.27872-3.0383-1.95219-8.02963.69953-10.68091C8.09938 1.65984 9.98977.8766 12.0007.8766c2.0109 0 3.9013.78324 5.3236 2.20509 2.6517 2.65128 2.9782 7.64261.6894 10.69451z"/></symbol>

    <symbol id="phone" xmlns="http://www.w3.org/2000/svg" fill="none" viewBox="0 0 21 21"><path fill="#FCB427" d="M16.5966 13.0089c-.4299-.4476-.9485-.687-1.4981-.687-.5451 0-1.0681.2349-1.5158.6826l-1.4006 1.3961c-.1152-.062-.2304-.1197-.3412-.1773-.1596-.0797-.3103-.1551-.4388-.2349-1.312-.8332-2.50422-1.9191-3.64772-3.3241-.55403-.70031-.92633-1.28979-1.19669-1.88813.36344-.33242.70028-.67813 1.02826-1.01055.12411-.1241.24821-.25263.37231-.37673.93076-.93076.93076-2.13632 0-3.06708L6.74827 3.11182c-.1374-.1374-.27923-.27923-.41219-.42106-.26594-.27479-.54516-.55845-.83326-.82438-.42992-.42549-.94405-.65154-1.48478-.65154s-1.06373.22605-1.50695.65154l-.00886.00886L.995283 3.39548C.427962 3.9628.104412 4.65423.0334966 5.45645-.072876 6.75065.308293 7.95621.600817 8.74514 1.31883 10.682 2.39142 12.477 3.99145 14.4006c1.9413 2.3181 4.27706 4.1486 6.94525 5.4383 1.0194.4831 2.3801 1.0549 3.9003 1.1524.0931.0044.1906.0089.2793.0089 1.0238 0 1.8836-.3679 2.5573-1.0992.0045-.0089.0133-.0133.0178-.0222.2304-.2792.4964-.5319.7756-.8022.1906-.1817.3856-.3723.5762-.5718.4388-.4565.6692-.9883.6692-1.5335 0-.5496-.2349-1.077-.6825-1.5203l-2.4333-2.4421zm1.5867 4.6671c-.0044 0-.0044.0044 0 0-.1728.1862-.3501.3546-.5407.5407-.2881.2748-.5806.5629-.8554.8865-.4477.4787-.9751.7047-1.6665.7047-.0665 0-.1374 0-.2039-.0044-1.3164-.0843-2.5396-.5984-3.4571-1.0372-2.50863-1.2144-4.71143-2.9385-6.54193-5.1236-1.51137-1.8216-2.52191-3.5059-3.19118-5.31419-.41219-1.10361-.56288-1.96346-.4964-2.77455.04432-.51857.24377-.94849.61164-1.31636l1.51138-1.51138c.21718-.20388.44765-.31468.67369-.31468.27923 0 .50527.16842.6471.31025.00444.00443.00887.00886.0133.0133.27036.25263.52743.51413.79779.79336.1374.14183.27923.28366.42106.42992l1.20999 1.20999c.46981.46981.46981.90417 0 1.37398-.12853.12853-.25263.25707-.38117.38117-.3723.38117-.72688.73574-1.11248 1.08145-.00886.00887-.01773.0133-.02216.02216-.38117.38117-.31025.75348-.23047 1.00611.00443.0133.00886.02659.01329.03989.31469.76234.75791 1.48038 1.4316 2.33578l.00444.0044c1.22328 1.507 2.51305 2.6815 3.93581 3.5812.1817.1153.3678.2083.5451.297.1596.0798.3103.1551.4388.2349.0177.0089.0355.0222.0532.031.1507.0754.2925.1108.4388.1108.3679 0 .5983-.2304.6737-.3058l1.5158-1.5158c.1507-.1507.39-.3324.6693-.3324.2748 0 .5008.1728.6382.3235.0044.0045.0044.0045.0089.0089l2.4421 2.4421c.4565.4521.4565.9175.0044 1.3873zM11.3489 4.99557c1.1612.19501 2.2161.74461 3.0582 1.58672.8421.84212 1.3873 1.89698 1.5867 3.05822.0488.29252.3014.49639.5895.49639.0355 0 .0665-.0044.102-.0089.328-.0531.5451-.36339.4919-.69137-.2393-1.40501-.9041-2.68591-1.9191-3.70089-1.015-1.01497-2.2959-1.6798-3.7009-1.91914-.328-.05318-.6338.164-.6914.48755-.0576.32355.1551.63823.4831.69142zM20.9756 9.26354c-.3944-2.3136-1.4848-4.41889-3.1601-6.09426C16.1401 1.49391 14.0348.403587 11.7212.00912211c-.3235-.05761851-.6294.16399089-.687.48754189-.0532.327982.164.633806.492.691426 2.0654.35014 3.9491 1.32965 5.4472 2.8233 1.498 1.49809 2.4731 3.38177 2.8233 5.44717.0487.29253.3014.49641.5895.49641.0354 0 .0664-.00444.1019-.00887.3235-.04875.5452-.35901.4875-.68256z"/></symbol>

    <symbol id="mail" xmlns="http://www.w3.org/2000/svg" fill="none" viewBox="0 0 24 24"><path fill="#FCB427" d="M22 3H2.00002C.896953 3 0 3.89695 0 5.00002V19c0 1.103.896953 2 2.00002 2H22c1.103 0 2-.897 2-2V5.00002C24 3.89695 23.103 3 22 3zm-19.99998.99998H22c.0737 0 .1386.02686.2078.04205-1.7315 1.5847-7.473 6.83717-9.4822 8.64737C12.5684 12.831 12.315 13 12 13c-.3149 0-.5683-.169-.726-.311-2.00906-1.81-7.75083-7.06273-9.48206-8.64687.06928-.01519.13434-.04215.20808-.04215zM.999984 19V5.00002c0-.09797.029536-.18685.055966-.27638 1.32525 1.21294 5.33138 4.87781 7.929 7.23996-2.58918 2.2241-6.59634 6.0232-7.93214 7.297-.02358-.085-.052826-.1682-.052826-.2606zM22 20H2.00002c-.07988 0-.1509-.0278-.22547-.0456 1.38033-1.3159 5.41298-5.1369 7.95665-7.313.3316.3008.6345.5751.8733.7903.4121.3721.8945.5683 1.3955.5683s.9834-.1963 1.395-.5679c.2389-.2152.542-.4897.8738-.7907 2.5438 2.1759 6.5759 5.9966 7.9567 7.313C22.1509 19.9722 22.08 20 22 20zm1-1c0 .0924-.0292.1756-.0528.2606-1.3363-1.2744-5.343-5.0731-7.9321-7.2969 2.5977-2.3622 6.6032-6.02675 7.9289-7.24015.0265.08953.056.17845.056.27642V19z"/></symbol>

</svg>