<svg width="24" height="24" viewBox="0 0 24 24" fill="none" xmlns="http://www.w3.org/2000/svg">
<path d="M12 24C5.383 24 0 18.617 0 12C0 5.383 5.383 0 12 0C18.617 0 24 5.383 24 12C24 18.617 18.617 24 12 24ZM12 1C5.935 1 1 5.935 1 12C1 18.065 5.935 23 12 23C18.065 23 23 18.065 23 12C23 5.935 18.065 1 12 1Z" fill="#2D2D2D"/>
<path d="M17.5 18C17.372 18 17.244 17.951 17.146 17.854L11.646 12.354C11.553 12.26 11.5 12.133 11.5 12V4.5C11.5 4.224 11.724 4 12 4C12.276 4 12.5 4.224 12.5 4.5V11.793L17.854 17.147C18.049 17.342 18.049 17.659 17.854 17.854C17.756 17.951 17.628 18 17.5 18Z" fill="#2D2D2D"/>
</svg>
