<svg width="24" height="24" viewBox="0 0 24 24" fill="none" xmlns="http://www.w3.org/2000/svg">
<path d="M17.7522 15.5492L16.8123 15.3478L16.8089 15.3467L14.5544 14.8644C14.5696 14.754 14.5776 14.6427 14.5784 14.5312V13.4843C15.255 13.052 15.812 12.4565 16.198 11.7524C16.584 11.0484 16.7866 10.2585 16.7871 9.45563V8.6025H17.3022C17.3453 8.60252 17.388 8.59405 17.4278 8.57757C17.4676 8.56109 17.5038 8.53692 17.5343 8.50645C17.5647 8.47598 17.5889 8.43979 17.6054 8.39997C17.6219 8.36015 17.6304 8.31747 17.6303 8.27437V7.14937C17.6304 7.10628 17.6219 7.0636 17.6054 7.02378C17.5889 6.98396 17.5647 6.94777 17.5343 6.9173C17.5038 6.88683 17.4676 6.86266 17.4278 6.84618C17.388 6.8297 17.3453 6.82123 17.3022 6.82125H17.0654C17.0517 5.69319 16.661 4.60214 15.9555 3.72185C15.2499 2.84156 14.2702 2.22265 13.1721 1.96369V1.21875C13.1722 1.17565 13.1637 1.13297 13.1472 1.09315C13.1307 1.05333 13.1066 1.01715 13.0761 0.986676C13.0456 0.956202 13.0094 0.932033 12.9696 0.915552C12.9298 0.899071 12.8871 0.8906 12.844 0.890625H11.1565C11.0695 0.890625 10.986 0.925195 10.9245 0.986731C10.863 1.04827 10.8284 1.13173 10.8284 1.21875V1.96369C9.73037 2.22265 8.75058 2.84156 8.04504 3.72185C7.3395 4.60214 6.9488 5.69319 6.93514 6.82125H6.69833C6.65523 6.82123 6.61255 6.8297 6.57273 6.84618C6.53291 6.86266 6.49673 6.88683 6.46625 6.9173C6.43578 6.94777 6.41161 6.98396 6.39513 7.02378C6.37865 7.0636 6.37018 7.10628 6.3702 7.14937V8.27437C6.37018 8.31747 6.37865 8.36015 6.39513 8.39997C6.41161 8.43979 6.43578 8.47598 6.46625 8.50645C6.49673 8.53692 6.53291 8.56109 6.57273 8.57757C6.61255 8.59405 6.65523 8.60252 6.69833 8.6025H7.21339V9.45563C7.21393 10.2585 7.41653 11.0484 7.80253 11.7524C8.18853 12.4565 8.7455 13.052 9.42214 13.4843V14.5312C9.4229 14.6427 9.43092 14.754 9.44614 14.8644L7.19164 15.3467H7.1892L6.2487 15.5481C5.6723 15.6732 5.15585 15.9913 4.78474 16.4497C4.41364 16.9082 4.21009 17.4795 4.20776 18.0694V22.7812C4.20776 22.8683 4.24233 22.9517 4.30387 23.0133C4.3654 23.0748 4.44886 23.1094 4.53589 23.1094H19.4646C19.5517 23.1094 19.6351 23.0748 19.6967 23.0133C19.7582 22.9517 19.7928 22.8683 19.7928 22.7812V18.0694C19.7902 17.4798 19.5866 16.9087 19.2156 16.4505C18.8446 15.9923 18.3284 15.6743 17.7522 15.5492ZM16.4091 6.82125H14.8596V4.89937C14.8596 4.81235 14.8251 4.72889 14.7635 4.66736C14.702 4.60582 14.6185 4.57125 14.5315 4.57125C14.4445 4.57125 14.361 4.60582 14.2995 4.66736C14.238 4.72889 14.2034 4.81235 14.2034 4.89937V6.82125H13.1721V2.63569C14.0925 2.88819 14.9058 3.43294 15.4897 4.18786C16.0735 4.94278 16.3962 5.86699 16.4091 6.82125ZM11.4846 1.54688H12.5159V6.82125H11.4846V1.54688ZM10.8284 2.63587V6.82125H9.79714V4.89937C9.79714 4.81235 9.76257 4.72889 9.70103 4.66736C9.6395 4.60582 9.55604 4.57125 9.46901 4.57125C9.38199 4.57125 9.29853 4.60582 9.23699 4.66736C9.17546 4.72889 9.14089 4.81235 9.14089 4.89937V6.82125H7.59139C7.60431 5.86701 7.927 4.94281 8.51084 4.18792C9.09469 3.43302 9.90805 2.88831 10.8284 2.63587ZM7.02645 7.4775H16.9741V7.94625H7.02645V7.4775ZM7.8702 9.45563V8.6025H16.1309V9.45563C16.1309 10.5511 15.6957 11.6018 14.9211 12.3764C14.1464 13.1511 13.0958 13.5863 12.0003 13.5863C10.9048 13.5863 9.85411 13.1511 9.07947 12.3764C8.30483 11.6018 7.86964 10.5511 7.86964 9.45563H7.8702ZM12.0003 14.2406C12.6619 14.2412 13.3165 14.104 13.9221 13.8375V14.5312C13.9221 15.041 13.7197 15.5298 13.3592 15.8902C12.9988 16.2506 12.51 16.4531 12.0003 16.4531C11.4906 16.4531 11.0017 16.2506 10.6413 15.8902C10.2809 15.5298 10.0784 15.041 10.0784 14.5312V13.8375C10.684 14.104 11.3386 14.2412 12.0003 14.2406ZM4.86401 18.0694C4.86602 17.6298 5.01794 17.204 5.29466 16.8625C5.57138 16.5209 5.95635 16.284 6.38595 16.1908L6.93214 16.0738V22.4531H4.86401V18.0694ZM7.58839 15.9334L9.61339 15.4999C9.78578 15.9228 10.0672 16.2924 10.429 16.571C10.7908 16.8497 11.22 17.0274 11.6729 17.0861V22.4531H7.58839V15.9334ZM12.3284 22.4531V17.0861C12.7813 17.0275 13.2105 16.8497 13.5723 16.5711C13.9341 16.2924 14.2155 15.9228 14.3879 15.4999L16.4129 15.9334V22.4531H12.3284ZM19.1365 22.4531H17.0684V16.074L17.6148 16.191C18.0443 16.2842 18.4292 16.5211 18.7059 16.8626C18.9826 17.2042 19.1345 17.6298 19.1365 18.0694V22.4531Z" fill="#2D2D2D"/>
<path d="M18.3396 19.1359C18.2965 19.1358 18.2538 19.1443 18.214 19.1608C18.1742 19.1773 18.138 19.2014 18.1075 19.2319C18.0771 19.2624 18.0529 19.2986 18.0364 19.3384C18.0199 19.3782 18.0115 19.4209 18.0115 19.464V20.6368C18.0115 20.7238 18.046 20.8073 18.1076 20.8688C18.1691 20.9304 18.2526 20.9649 18.3396 20.9649C18.4266 20.9649 18.5101 20.9304 18.5716 20.8688C18.6332 20.8073 18.6677 20.7238 18.6677 20.6368V19.464C18.6677 19.377 18.6332 19.2935 18.5716 19.232C18.5101 19.1704 18.4266 19.1359 18.3396 19.1359Z" fill="#2D2D2D"/>
<path d="M10.4739 18.39H8.78638C8.69935 18.39 8.61589 18.4246 8.55436 18.4861C8.49282 18.5477 8.45825 18.6311 8.45825 18.7181C8.45825 18.8052 8.49282 18.8886 8.55436 18.9502C8.61589 19.0117 8.69935 19.0463 8.78638 19.0463H10.4739C10.5609 19.0463 10.6444 19.0117 10.7059 18.9502C10.7674 18.8886 10.802 18.8052 10.802 18.7181C10.802 18.6311 10.7674 18.5477 10.7059 18.4861C10.6444 18.4246 10.5609 18.39 10.4739 18.39Z" fill="#2D2D2D"/>
</svg>
