<svg width="24" height="24" viewBox="0 0 24 24" fill="none" xmlns="http://www.w3.org/2000/svg">
<path d="M17 8.79999H6.99998C6.77918 8.79999 6.59998 8.97879 6.59998 9.19999C6.59998 9.42119 6.77918 9.59999 6.99998 9.59999H17C17.2208 9.59999 17.4 9.42119 17.4 9.19999C17.4 8.97879 17.2208 8.79999 17 8.79999Z" fill="black"/>
<path d="M6.99998 6.40001H11C11.2208 6.40001 11.4 6.22121 11.4 6.00001C11.4 5.77881 11.2208 5.60001 11 5.60001H6.99998C6.77918 5.60001 6.59998 5.77881 6.59998 6.00001C6.59998 6.22121 6.77918 6.40001 6.99998 6.40001Z" fill="black"/>
<path d="M17 12H6.99998C6.77918 12 6.59998 12.1788 6.59998 12.4C6.59998 12.6212 6.77918 12.8 6.99998 12.8H17C17.2208 12.8 17.4 12.6212 17.4 12.4C17.4 12.1788 17.2208 12 17 12Z" fill="black"/>
<path d="M17 15.2H6.99998C6.77918 15.2 6.59998 15.3788 6.59998 15.6C6.59998 15.8212 6.77918 16 6.99998 16H17C17.2208 16 17.4 15.8212 17.4 15.6C17.4 15.3788 17.2208 15.2 17 15.2Z" fill="black"/>
<path d="M17 18.4H6.99998C6.77918 18.4 6.59998 18.5788 6.59998 18.8C6.59998 19.0212 6.77918 19.2 6.99998 19.2H17C17.2208 19.2 17.4 19.0212 17.4 18.8C17.4 18.5788 17.2208 18.4 17 18.4Z" fill="black"/>
<path d="M15.5656 0H2.59998V24H21.4V5.8344L15.5656 0ZM15.8 1.3656L20.0344 5.6H15.8V1.3656ZM3.39998 23.2V0.8H15V6.4H20.6V23.2H3.39998Z" fill="black"/>
</svg>
