<svg width="25" height="25" viewBox="0 0 25 25" fill="none" xmlns="http://www.w3.org/2000/svg">
<g clip-path="url(#clip0)">
<path d="M23.6559 1.88244e-06H1.36715C0.974034 -0.000741715 0.613638 0.218867 0.433937 0.568604C0.251756 0.92305 0.28373 1.34987 0.516475 1.67358L8.68213 13.1765C8.68486 13.1805 8.68783 13.1842 8.69056 13.1881C8.98726 13.5887 9.14762 14.0738 9.14861 14.5725V23.9507C9.14688 24.2285 9.25594 24.4952 9.45175 24.6923C9.64757 24.8893 9.91377 24.9999 10.1914 24.9999C10.3327 24.9999 10.4722 24.9716 10.6026 24.9176L15.1911 23.1679C15.6023 23.0425 15.8752 22.6546 15.8752 22.1874V14.5725C15.8759 14.074 16.0365 13.5887 16.333 13.1881C16.3357 13.1842 16.3387 13.1805 16.3414 13.1765L24.5068 1.67309C24.7396 1.34963 24.7715 0.92305 24.5894 0.568604C24.4096 0.218867 24.0493 -0.000741715 23.6559 1.88244e-06ZM15.3098 12.4364C14.8537 13.0553 14.6071 13.8036 14.6056 14.5725V22.0332L10.4177 23.6299V14.5725C10.4162 13.8036 10.1696 13.0553 9.71325 12.4364L1.78579 1.26907H23.2375L15.3098 12.4364Z" fill="white"/>
</g>
<defs>
<clipPath id="clip0">
<rect width="25" height="25" fill="white"/>
</clipPath>
</defs>
</svg>
